<svg width="58" height="58" viewBox="0 0 58 58" fill="none" xmlns="http://www.w3.org/2000/svg">
<path d="M49.0799 42.7943C45.6893 46.47 40.5587 48.3333 33.8331 48.3333L31.4164 48.3333L31.4164 41.5207L33.3594 41.1316C36.6703 40.4694 38.9734 39.1668 40.2059 37.2553C40.849 36.2254 41.2137 35.0463 41.2644 33.8333L33.8331 33.8333C33.1922 33.8333 32.5775 33.5786 32.1243 33.1254C31.6711 32.6722 31.4164 32.0575 31.4164 31.4166L31.4164 14.4999C31.4164 11.8343 33.5842 9.66659 36.2498 9.66659L50.7498 9.66659C51.3907 9.66659 52.0054 9.9212 52.4586 10.3744C52.9118 10.8276 53.1664 11.4423 53.1664 12.0833L53.1664 24.1666L53.1592 31.2208C53.1809 31.4891 53.6401 37.8449 49.0799 42.7943ZM9.66644 9.66658L24.1664 9.66659C24.8074 9.66659 25.4221 9.9212 25.8753 10.3744C26.3285 10.8276 26.5831 11.4423 26.5831 12.0833L26.5831 24.1666L26.5759 31.2208C26.5976 31.4891 27.0568 37.8449 22.4965 42.7943C19.1059 46.47 13.9754 48.3332 7.24977 48.3332L4.8331 48.3332L4.8331 41.5207L6.77611 41.1316C10.0869 40.4694 12.39 39.1668 13.6225 37.2553C14.2656 36.2254 14.6303 35.0463 14.681 33.8332L7.24977 33.8332C6.60883 33.8332 5.99414 33.5786 5.54093 33.1254C5.08772 32.6722 4.8331 32.0575 4.8331 31.4166L4.83311 14.4999C4.83311 11.8343 7.00086 9.66658 9.66644 9.66658Z" fill="#FE8B75" fill-opacity="0.3"/>
</svg>
