<svg width="17" height="17" viewBox="0 0 17 17" fill="none" xmlns="http://www.w3.org/2000/svg">
<path d="M8.49801 0.529297C5.27689 0.529297 2.65479 3.15141 2.65479 6.37252C2.65478 12.0403 8.1686 16.3491 8.1686 16.3491C8.26272 16.4243 8.37956 16.4651 8.49997 16.4651C8.62039 16.4651 8.73723 16.4243 8.83135 16.3491C8.83135 16.3491 14.3452 12.0403 14.3452 6.37252C14.3452 3.15141 11.7191 0.529297 8.49801 0.529297ZM8.49801 1.59206C11.1449 1.59206 13.2824 3.72562 13.2824 6.37252C13.2824 11.0092 9.08381 14.6726 8.50193 15.1687C7.92283 14.675 3.71754 11.011 3.71755 6.37252C3.71755 3.72562 5.85111 1.59206 8.49801 1.59206Z" fill="white"/>
<path d="M8.4982 3.71753C7.03749 3.71753 5.84327 4.91176 5.84326 6.37247C5.84325 7.8332 7.03748 9.03134 8.4982 9.03134C9.95892 9.03134 11.1571 7.8332 11.1571 6.37247C11.1571 4.91176 9.95892 3.71753 8.4982 3.71753ZM8.4982 4.78029C9.3847 4.78029 10.0943 5.48598 10.0943 6.37247C10.0943 7.25897 9.3847 7.96858 8.4982 7.96858C7.6117 7.96858 6.90602 7.25897 6.90602 6.37247C6.90603 5.48598 7.61171 4.78029 8.4982 4.78029Z" fill="white"/>
</svg>
