<svg width="64" height="64" viewBox="0 0 64 64" fill="none" xmlns="http://www.w3.org/2000/svg">
<path d="M9.84251 16.7787C13.5838 12.7227 19.2452 10.6667 26.6665 10.6667H29.3332V18.1841L27.1892 18.6134C23.5358 19.3441 20.9945 20.7814 19.6345 22.8907C18.9249 24.0271 18.5224 25.3282 18.4665 26.6667H26.6665C27.3738 26.6667 28.052 26.9477 28.5521 27.4478C29.0522 27.9479 29.3332 28.6262 29.3332 29.3334V48.0001C29.3332 50.9414 26.9412 53.3334 23.9998 53.3334H7.99984C7.2926 53.3334 6.61432 53.0525 6.11422 52.5524C5.61413 52.0523 5.33317 51.374 5.33317 50.6667V37.3334L5.34117 29.5494C5.31717 29.2534 4.81051 22.2401 9.84251 16.7787ZM53.3332 53.3334H37.3332C36.6259 53.3334 35.9477 53.0525 35.4476 52.5524C34.9475 52.0523 34.6665 51.374 34.6665 50.6667V37.3334L34.6745 29.5494C34.6505 29.2534 34.1438 22.2401 39.1758 16.7787C42.9172 12.7227 48.5785 10.6667 55.9998 10.6667H58.6665V18.1841L56.5225 18.6134C52.8692 19.3441 50.3278 20.7814 48.9678 22.8907C48.2582 24.0271 47.8558 25.3282 47.7998 26.6667H55.9998C56.7071 26.6667 57.3854 26.9477 57.8855 27.4478C58.3856 27.9479 58.6665 28.6262 58.6665 29.3334V48.0001C58.6665 50.9414 56.2745 53.3334 53.3332 53.3334Z" fill="#FE8B75" fill-opacity="0.3"/>
</svg>
